<?xml version="1.0" encoding="UTF-8"?>
<svg xmlns="http://www.w3.org/2000/svg" viewBox="0 0 520 650">
    <style>
        .state {
            fill: #ccc;
            stroke: #fff;
            stroke-width: 1px;
        }
        .state:hover {
            fill: #aaa;
        }
        .seen {
            fill: #8bc34a;
        }
    </style>
    <g id="states">
        <path id="DE-SH" class="state" d="m413.48 94.484-5.324 16.205-13.064 1.543-12.825-13.88-3.414-15.11-14.41-1.92-22.34-19.64-2.45-13.62-13.25-11.75-23.95-6.28-11.85 2.1-12.87 9.8-13.89 4.31-4.88 12.08-16.14 11.23-1.63 20.3-2.34 11.53 10.93 11.53 10.93 2.65 13.92 10.93 11.53 14.28 1.63 15.3 12.58 20.3 2.34 11.53-10.93z"/>
        <path id="DE-MV" class="state" d="m511.66 211.59-1.92-16.5-12.78-10.02-14.8-21.78-10.74-2.88-21.36-22.5-18.48-6-21.36-12.18-20.16-3.72-13.92-11.1-13.2-22.92-10.62-1.98-2.58 17.52-5.76 10.86-11.28 14.58-3.6 10.62 4.14 11.52 7.86 16.32 1.32 14.82 12.3 2.58 13.98-5.04 8.7-2.16 11.7-5.52 10.56-1.56 18.36 10.2 16.08 1.68 17.04-1.8 14.88 12.12 11.04 15.24 2.04 13.32-6.6z"/>
        <path id="DE-HH" class="state" d="m416.03 128.42-3.41-11.7-10.94-10.19-12.23-1.63-10.28 10.19-2.01 12.08 10.59 11.53 12.58 2.97 9.92-10.19z"/>
        <path id="DE-NI" class="state" d="m420.37 263.91-11.53-10.93-2.34-12.58-10.93-11.53-13.25-2.65-11.23-10.59-12.58-1.63-10.93 10.59-11.53-1.63-10.93-11.53-12.58-2.34-11.53 10.93-20.3-2.34-15.3-12.58-14.28-1.63-10.93-11.53-2.65-13.92-11.53-10.93-2.34-11.53 10.93-20.3 2.34-11.53-10.93-1.63-20.3 16.14-11.23 4.88-12.08-13.89-4.31-12.87-9.8-11.85-2.1-23.95 6.28-11.75 13.25-2.45 13.62-22.34 19.64-14.41 1.92-3.41 15.11-12.82 13.88-13.06-1.54-5.32-16.2-12.58-1.63-10.93 10.59-11.53 1.63-10.93 11.53-12.58 2.34-11.53-10.93-20.3 2.34-15.3 12.58-14.28 1.63-10.93 11.53-2.65 13.92-11.53 10.93-2.34 11.53-10.93-20.3-2.34-11.53 10.93-1.63 20.3 16.14 11.23 4.88 12.08-13.89 4.31-12.87 9.8-11.85 2.1-23.95-6.28-11.75 13.25-2.45 13.62-22.34 19.64-14.41 1.92-3.41 15.11-12.82 13.88-13.06-1.54-5.32-16.2-12.58-1.63-10.93 10.59-11.53 1.63-10.93 11.53-12.58 2.34-11.53-10.93-20.3 2.34-15.3 12.58-14.28 1.63-10.93 11.53-2.65 13.92-11.53 10.93-2.34 11.53-10.93-20.3-2.34-11.53 10.93-1.63 20.3 16.14 11.23 4.88 12.08-13.89 4.31-12.87 9.8-11.85 2.1-23.95-6.28-11.75 13.25-2.45 13.62-22.34 19.64-14.41 1.92-3.41 15.11-12.82 13.88-13.06-1.54-5.32-16.2z"/>
        <path id="DE-HB" class="state" d="m343.37 178.63-11.53-10.93-2.34-12.58-10.93-11.53-13.25-2.65-11.23-10.59-12.58-1.63-10.93 10.59-11.53-1.63-10.93-11.53-12.58-2.34-11.53 10.93-20.3-2.34-15.3-12.58-14.28-1.63-10.93-11.53-2.65-13.92z"/>
        <path id="DE-BB" class="state" d="m507.66 331.59-1.92-16.5-12.78-10.02-14.8-21.78-10.74-2.88-21.36-22.5-18.48-6-21.36-12.18-20.16-3.72-13.92-11.1-13.2-22.92-10.62-1.98-2.58 17.52-5.76 10.86-11.28 14.58-3.6 10.62 4.14 11.52 7.86 16.32 1.32 14.82 12.3 2.58 13.98-5.04 8.7-2.16 11.7-5.52 10.56-1.56 18.36 10.2 16.08 1.68 17.04-1.8 14.88 12.12 11.04 15.24 2.04 13.32-6.6z"/>
        <path id="DE-BE" class="state" d="m470.03 282.42-3.41-11.7-10.94-10.19-12.23-1.63-10.28 10.19-2.01 12.08 10.59 11.53 12.58 2.97 9.92-10.19z"/>
        <path id="DE-ST" class="state" d="m450.37 363.91-11.53-10.93-2.34-12.58-10.93-11.53-13.25-2.65-11.23-10.59-12.58-1.63-10.93 10.59-11.53-1.63-10.93-11.53-12.58-2.34-11.53 10.93-20.3-2.34-15.3-12.58-14.28-1.63-10.93-11.53-2.65-13.92z"/>
        <path id="DE-SN" class="state" d="m480.37 423.91-11.53-10.93-2.34-12.58-10.93-11.53-13.25-2.65-11.23-10.59-12.58-1.63-10.93 10.59-11.53-1.63-10.93-11.53-12.58-2.34-11.53 10.93-20.3-2.34-15.3-12.58-14.28-1.63-10.93-11.53-2.65-13.92z"/>
        <path id="DE-TH" class="state" d="m420.37 453.91-11.53-10.93-2.34-12.58-10.93-11.53-13.25-2.65-11.23-10.59-12.58-1.63-10.93 10.59-11.53-1.63-10.93-11.53-12.58-2.34-11.53 10.93-20.3-2.34-15.3-12.58-14.28-1.63-10.93-11.53-2.65-13.92z"/>
        <path id="DE-NW" class="state" d="m300.37 383.91-11.53-10.93-2.34-12.58-10.93-11.53-13.25-2.65-11.23-10.59-12.58-1.63-10.93 10.59-11.53-1.63-10.93-11.53-12.58-2.34-11.53 10.93-20.3-2.34-15.3-12.58-14.28-1.63-10.93-11.53-2.65-13.92z"/>
        <path id="DE-HE" class="state" d="m360.37 483.91-11.53-10.93-2.34-12.58-10.93-11.53-13.25-2.65-11.23-10.59-12.58-1.63-10.93 10.59-11.53-1.63-10.93-11.53-12.58-2.34-11.53 10.93-20.3-2.34-15.3-12.58-14.28-1.63-10.93-11.53-2.65-13.92z"/>
        <path id="DE-RP" class="state" d="m280.37 493.91-11.53-10.93-2.34-12.58-10.93-11.53-13.25-2.65-11.23-10.59-12.58-1.63-10.93 10.59-11.53-1.63-10.93-11.53-12.58-2.34-11.53 10.93-20.3-2.34-15.3-12.58-14.28-1.63-10.93-11.53-2.65-13.92z"/>
        <path id="DE-SL" class="state" d="m265.03 542.42-3.41-11.7-10.94-10.19-12.23-1.63-10.28 10.19-2.01 12.08 10.59 11.53 12.58 2.97 9.92-10.19z"/>
        <path id="DE-BY" class="state" d="m420.37 583.91-11.53-10.93-2.34-12.58-10.93-11.53-13.25-2.65-11.23-10.59-12.58-1.63-10.93 10.59-11.53-1.63-10.93-11.53-12.58-2.34-11.53 10.93-20.3-2.34-15.3-12.58-14.28-1.63-10.93-11.53-2.65-13.92-11.53 10.93-2.34 11.53-10.93-20.3-2.34-11.53 10.93-1.63 20.3 16.14 11.23 4.88 12.08-13.89 4.31-12.87 9.8-11.85 2.1-23.95-6.28-11.75 13.25-2.45 13.62z"/>
        <path id="DE-BW" class="state" d="m340.37 553.91-11.53-10.93-2.34-12.58-10.93-11.53-13.25-2.65-11.23-10.59-12.58-1.63-10.93 10.59-11.53-1.63-10.93-11.53-12.58-2.34-11.53 10.93-20.3-2.34-15.3-12.58-14.28-1.63-10.93-11.53-2.65-13.92z"/>
    </g>
</svg>