<?xml version="1.0" encoding="UTF-8"?>
<svg xmlns="http://www.w3.org/2000/svg" viewBox="0 0 800 1000">
    <style>
        .state {
        fill: white;
        stroke: green;
        stroke-width: 1px;
        cursor: pointer;
        transition: fill 0.2s;
        }
        .state:hover {
        fill: #c0392b;
        }
    </style>


    <!-- Schleswig-Holstein -->
    <path id="DE-SH" class="state"
        d="M420 70
         L500 90 L560 140 L570 190
         L520 210 L470 200 L430 220
         L380 190 L360 140 Z"/>

    <!-- Mecklenburg-Vorpommern -->
    <path id="DE-MV" class="state"
        d="M560 140
         L660 160 L740 210 L760 270
         L720 300 L660 290 L620 310
         L570 270 Z"/>

    <!-- Hamburg -->
    <path id="DE-HH" class="state"
        d="M460 210 L485 210 L490 235 L465 240 Z"/>

    <!-- Bremen -->
    <path id="DE-HB" class="state"
        d="M420 260 L440 260 L445 285 L425 290 Z"/>

    <!-- Lower Saxony -->
    <path id="DE-NI" class="state"
        d="M320 200
         L380 190 L430 220 L460 260
         L470 320 L440 360 L390 380
         L330 360 L290 320 L300 250 Z"/>

    <!-- Brandenburg -->
    <path id="DE-BB" class="state"
        d="M600 310
         L680 300 L770 360 L800 440
         L760 520 L690 540 L630 500
         L590 420 Z"/>

    <!-- Berlin -->
    <path id="DE-BE" class="state"
        d="M660 400 L690 400 L695 430 L665 435 Z"/>

    <!-- Saxony-Anhalt -->
    <path id="DE-ST" class="state"
        d="M470 260
         L560 270 L590 310 L580 360
         L520 390 L470 360 Z"/>

    <!-- North Rhine-Westphalia -->
    <path id="DE-NW" class="state"
        d="M220 330
         L300 320 L330 360 L330 440
         L290 480 L230 460 L200 400 Z"/>

    <!-- Hesse -->
    <path id="DE-HE" class="state"
        d="M330 380
         L410 370 L450 420 L440 480
         L390 520 L340 490 Z"/>

    <!-- Thuringia -->
    <path id="DE-TH" class="state"
        d="M450 390
         L520 390 L550 430 L540 480
         L480 510 L440 470 Z"/>

    <!-- Saxony -->
    <path id="DE-SN" class="state"
        d="M550 480
         L620 470 L700 510 L710 570
         L660 610 L580 600 Z"/>

    <!-- Rhineland-Palatinate -->
    <path id="DE-RP" class="state"
        d="M240 460
         L300 460 L330 500 L320 570
         L280 610 L240 580 Z"/>

    <!-- Saarland -->
    <path id="DE-SL" class="state"
        d="M240 600 L270 600 L280 630 L250 640 Z"/>

    <!-- Baden-Württemberg -->
    <path id="DE-BW" class="state"
        d="M330 520
         L420 520 L470 580 L460 670
         L400 720 L340 680 Z"/>

    <!-- Bavaria -->
    <path id="DE-BY" class="state"
        d="M470 520
         L620 520 L760 600 L820 720
         L800 850 L700 930 L560 900
         L480 820 Z"/>

</svg>
