<?xml version="1.0" encoding="UTF-8"?>
<svg xmlns="http://www.w3.org/2000/svg" viewBox="0 0 800 1000">
    <style>
        .state {
        fill: white;
        stroke: green;
        stroke-width: 1px;
        cursor: pointer;
        transition: fill 0.2s;
        }
        .state:hover {
        fill: #c0392b;
        }
    </style>


    <!-- Schleswig-Holstein -->
    <path id="DE-SH" class="state"
        d="M420 70
         L500 90 L560 140 L570 190
         L520 210 L470 200 L430 220
         L380 190 L360 140 Z"/>

    <!-- Mecklenburg-Vorpommern -->
    <path id="DE-MV" class="state"
        d="M560 140
         L660 160 L740 210 L760 270
         L720 300 L660 290 L620 310
         L570 270 Z"/>

    <!-- Hamburg -->
    <path id="DE-HH" class="state"
        d="M460 210 L485 210 L490 235 L465 240 Z"/>

    <!-- Bremen -->
    <path id="DE-HB" class="state"
        d="M420 260 L440 260 L445 285 L425 290 Z"/>

    <!-- Lower Saxony -->
    <path id="DE-NI" class="state"
        d="M320 200
         L380 190 L430 220 L460 260
         L470 320 L440 360 L390 380
         L330 360 L290 320 L300 250 Z"/>

    <!-- Brandenburg -->
    <path id="DE-BB" class="state"
        d="M600 310
         L680 300 L770 360 L800 440
         L760 520 L690 540 L630 500
         L590 420 Z"/>

    <!-- Berlin -->
    <path id="DE-BE" class="state"
        d="M660 400 L690 400 L695 430 L665 435 Z"/>

    <!-- Saxony-Anhalt -->
    <path id="DE-ST" class="state"
        d="M470 260
         L560 270 L590 310 L580 360
         L520 390 L470 360 Z"/>

    <!-- North Rhine-Westphalia -->
    <path id="DE-NW" class="state"
        d="M220 330
         L300 320 L330 360 L330 440
         L290 480 L230 460 L200 400 Z"/>

    <!-- Hesse -->
    <path id="DE-HE" class="state"
        d="M330 380
         L410 370 L450 420 L440 480
         L390 520 L340 490 Z"/>

    <!-- Thuringia -->
    <path id="DE-TH" class="state"
        d="M 312.004 351.725 l 1.845 -0.401 l 3.39 0.274 l 1.912 0.169 l 2.919 0.688 l 0.429 0.307 l 1.961 1.819 l 1.265 -0.54 l -1.666 2.241 l -0.478 1.607 l 1.212 2.886 l 2.09 3.257 l 1.68 2.591 l 0.958 1.226 l -0.147 2.39 l -0.133 2.706 l 0.777 0.467 l 0.86 0.961 l 0.842 0.105 l 0.75 -0.073 l 1.158 -0.412 l 0.629 -0.317 l 6.445 2.04 l 0.459 0.054 l 6.443 0.137 l 1.402 -0.031 l 0.703 -0.148 l 2.77 0.116 l 4.188 1.607 l 0.233 0.296 l 0.042 0.338 l -0.275 1.872 l 0.55 1.015 l 0.021 0.402 l 1.797 0.603 l -0.523 0.507 l -0.064 0.148 l -0.019 0.147 l 0.49 0.634 l 0.677 0.646 l 0.309 0.105 l 0.396 0.211 l 1.306 1.173 l 0.466 0.509 l 0.041 0.274 l -0.063 0.148 l -0.4 0.687 l -0.703 1.11 l -1.466 2.146 l -0.819 1.152 l -0.519 0.593 l -0.274 0.2 l -0.472 0.18 l -0.052 -0.011 l -0.75 -0.855 l -0.186 0.011 l -0.222 0.158 l -0.339 0.528 l -0.576 1.005 l -0.104 0.803 l 1.554 1.237 l 1.591 0.042 l 0.936 -0.444 l 0.243 0.021 l 0.862 0.359 l 1.571 1.607 l 1.082 2.452 v 0.276 l -0.533 1.247 l -0.275 0.508 l -1.316 0.242 l 0.83 3.426 l 0.486 0.371 l 0.904 0.423 l 0.054 0.263 l 3.874 -0.083 l 0.841 -0.709 l 0.255 -0.231 l 0.342 -0.753 l 0.202 -0.179 l 6.296 0.994 l 1.561 0.961 l 0.313 1.218 l 0.188 1.331 l 0.139 0.562 l 4.777 1.521 l 1.805 0.486 l 2.808 -0.581 l 2.029 -0.539 l 0.835 0.273 l 3.452 2.199 l 2.168 1.556 l 0.254 0.231 l 2.348 3.013 l 0.18 0.53 l 0.021 0.242 l 0.043 0.89 l 0.956 -0.425 l 0.343 -0.083 l 3.226 -0.52 l 0.244 -0.021 l 3.615 1.195 l 1.09 0.498 l -0.075 -0.72 l 0.249 -0.273 l 0.275 -0.308 l 0.676 -0.55 l 0.106 0.104 l 1.406 1.799 l 0.444 0.836 l 0.264 1.076 l 0.042 0.032 l 0.577 -0.402 l 0.242 -0.124 l 0.714 -0.932 l 3.182 -6.872 l 0.064 -0.307 l 0.042 -1.026 l -0.475 -0.624 l -0.382 -0.232 l -1.306 -0.963 l -0.248 -1.681 l 1.607 -2.505 l 2.991 -1.459 l 0.096 -0.021 l 7.692 2.41 l 2.896 1.057 l 0.376 0.244 l 0.19 0.274 l 0.242 0.89 l -0.127 0.653 l -0.072 1.248 l 0.307 1.767 l 2.475 1.86 l 2.379 0.899 l 2.421 0.612 l 0.339 1.649 l 0.586 2.272 l 0.147 0.255 l 0.661 1.098 l 0.264 0.254 l 0.541 0.371 l -0.815 1.237 l -2.796 0.911 l -1.422 0.252 l -0.561 -0.136 l -1.894 0.295 l -3.209 0.814 l -0.264 0.148 l -1.455 1.235 l -0.031 1.248 l -0.924 2.623 l -0.201 0.084 l -1.266 0.37 l -0.04 -0.064 l -0.556 -0.729 l -0.593 -0.221 h -1.575 l -0.296 0.096 l -1.633 1.269 l -0.011 0.072 l 0.021 1.376 l -4.357 1.574 l -1.325 -0.148 l -0.572 -0.739 l -0.471 0.963 l -0.755 5.443 l -0.085 1.048 l 0.032 0.506 l 0.021 0.286 l 2.49 4.429 l 0.793 0.784 l 2.955 0.793 l -0.222 1.292 l -1.085 1.437 l -0.094 0.104 l -2.041 2.136 l -1.935 0.443 l -0.148 -0.02 l -3.643 1.565 l -3.231 1.417 l -0.518 0.221 l -0.211 0.149 l -0.291 0.844 l 1.967 0.581 l 0.35 -0.316 l 0.682 0.021 l 0.095 0.041 l 0.233 0.403 l -0.148 0.54 l -0.105 0.084 l -0.211 0.105 l -0.842 0.094 l -0.351 -0.137 l -1.156 0.762 l -2.474 -0.305 l -3.965 0.199 l 0.459 -2.813 l -0.438 -3.075 l -0.751 -0.792 l -0.376 0.103 l -0.137 0.087 l -1.347 1.235 l -0.055 0.814 l -2.241 2.317 l -0.212 0.083 l -0.725 0.338 l -0.38 0.225 l -3.13 4.396 l -0.122 0.34 l -0.01 0.095 l 0.745 1.796 l 0.307 0.507 l 0.914 0.022 l 1.126 -0.138 l 0.83 0.763 l 1.984 1.859 l 0.237 0.495 l 0.042 0.268 l -0.333 0.527 l -1.846 1.733 l -1.629 0.867 l -0.612 0.497 l -0.444 0.698 l 0.138 0.199 l 0.486 0.487 l 1.57 1.1 l -2.665 1.195 l -4.106 1.458 l -12.482 1.714 h -0.213 l -0.295 -0.168 l -0.565 -0.53 l -0.423 -0.486 l -0.285 -0.211 l -0.388 -0.189 l -1.317 0.284 l -0.158 0.094 l -0.157 0.255 l -0.16 0.771 l -0.02 0.212 l -0.439 0.413 l -1.887 0.592 l -0.588 -0.295 l -1.675 -1.873 l -0.661 -1.185 l -0.549 -2.188 l -1.756 0.212 l -1.982 -1.174 l -0.105 -0.179 l -0.086 -0.56 l -0.035 -2.106 l 0.142 -1.575 l 0.444 -0.655 l 0.444 0.011 l 0.074 -0.105 l 0.269 -0.676 v -0.148 l -0.565 -0.825 l -0.327 -0.476 l -0.265 -0.221 l -3.475 -0.668 l -1.575 0.21 l -0.169 0.065 l -1.084 1.152 l -0.222 0.751 l -2.199 1.776 l -1.517 0.698 l -0.096 -0.158 l -0.455 -0.137 l -0.428 0.137 l -0.222 0.252 l -0.147 0.624 v 0.201 l 0.115 2.135 l 0.692 0.477 l 0.444 0.159 l 0.297 0.835 l 1.199 7.56 v 0.064 l -2.005 6.873 l -3.112 0.516 l -0.937 1.883 l -0.096 0.138 l -0.819 0.029 l -2.21 -2.135 l -0.696 -1.015 l -0.032 -0.105 l -0.097 -0.486 l 0.107 -0.581 l 0.422 -0.476 l 0.328 -0.286 l 0.555 -0.412 l 0.423 -0.138 l 0.043 -0.613 l -1.358 -2.368 l -1.623 -1.364 l -0.894 -0.01 l -0.745 0.167 l -0.127 0.108 l -0.382 1.152 l -1.167 0.496 l -1.36 0.465 l -0.401 -0.053 l -3.585 -0.635 l -1.348 -1.469 l -1.136 -2.03 l -0.549 -0.561 l -0.19 -0.042 h -0.16 l -6.64 0.042 l -7.507 3.066 l -0.212 0.94 l 0.18 3.056 l 0.086 0.371 l 0.368 0.308 l 5.503 3.888 l 0.171 0.055 l 0.623 0.148 l 1.283 0.421 l 0.588 0.309 l 0.413 0.527 l 0.053 1.375 l -0.223 0.615 l -0.137 0.167 l -0.684 0.465 l -0.696 0.181 l -0.285 -0.042 l -2.828 -0.647 l -2.423 -0.559 l -0.581 -0.116 l -0.291 0.224 l -0.073 0.211 l 0.042 1.7 l 0.143 0.065 l 0.138 1.755 l -0.449 0.76 l -0.189 0.086 l -0.276 0.044 l -5.228 -1.917 l -1.835 -0.452 l -0.191 -0.445 l -0.417 -1.163 l -0.667 -2.877 l 0.34 -3.571 l 0.263 -2.813 l -3.044 -0.698 l -3.997 -1.5 l -2.284 -2.496 l -0.307 -1.184 l -0.254 -1.015 l -0.883 0.443 l -0.925 0.423 l -1.856 -0.2 l -0.169 -0.021 l -0.534 -0.752 l -0.021 -0.582 l -0.391 -2.41 l -2.431 -5.159 l -0.504 -0.529 l -0.548 -0.444 l -4.675 -1.954 l -1.455 -1.968 l -1.84 -2.409 l -0.539 -0.055 l -6.64 0.709 l -1.813 2.009 l -0.988 0.983 l -0.37 0.179 l -0.28 0.087 l -0.202 -9.706 l 0.17 -0.37 l 0.396 -0.636 l 0.212 -0.232 l 1.803 -1.511 l -0.74 -2.061 l -0.777 -1.355 l -0.296 -0.242 l -1.273 -0.127 l -2.158 -0.127 l -0.481 0.127 l -2.431 0.951 l -0.243 0.316 l 0.042 0.614 l 1.232 1.532 l -0.54 1.238 l -0.925 0.189 l -1.085 -0.181 l -3.272 -0.581 l -0.063 -0.931 l 0.073 -2.652 l 0.302 -0.443 l 0.678 -0.973 l 1.389 -1.715 l 1.254 -2.674 l 0.471 -1.238 v -0.327 l -0.169 -1.471 l -0.926 -1.129 l 1.349 -0.425 l 0.264 -0.095 l 0.127 -0.146 l -0.011 -0.465 l -0.094 -0.974 l -0.382 -0.711 l -0.01 -0.559 l 0.358 -1.797 l 0.138 -0.349 l 1.096 -0.889 l 0.459 -0.327 l 1.622 0.211 l 1.38 -0.041 l 0.715 -1.154 l 1.623 -4.102 l -0.021 -0.794 l -0.968 -5.908 l -1.465 -4.813 l 0.609 -1.268 l 0.147 -0.297 l 0.148 -0.095 l 0.264 -0.138 l 0.862 -0.106 l 1.433 0.148 l 2.295 0.317 l 1.284 0.699 l 0.296 0.358 l 0.29 0.223 l 0.465 0.136 l 0.413 -0.053 l 1.714 -0.233 l 0.241 -0.179 l 0.181 0.043 l 0.514 -0.2 l 0.274 -0.159 l 0.55 -0.654 l -0.148 -0.181 l 0.588 -1.163 l 0.17 -0.497 l -0.525 -0.941 l -0.507 -0.528 l -0.201 -0.212 l -0.895 -0.604 l -1.796 -0.653 l -0.212 -4.314 l -0.612 -1.228 l -1.349 -2.863 l -0.106 -0.266 l 0.456 -0.57 l 2.61 -0.635 l 1.053 1.078 l 0.359 1.322 l 0.28 0.443 l -0.011 0.044 l 0.371 0.696 h 0.569 l 0.186 -0.221 l 0.042 -0.784 l -0.042 -1.786 l -0.206 0.031 l -0.359 -0.528 l -0.032 -0.264 l 0.423 -1.333 l 0.334 -0.306 l 0.369 -0.181 l 0.614 -0.443 l 0.322 -0.794 l -0.28 -0.612 l -1.243 -0.296 l -1.316 -1.29 l -0.582 -0.476 l -0.818 -0.497 l -1.654 -0.562 l -4.558 -2.314 l -0.915 -2.897 l -1.888 -0.804 L 265.601 388 l -1.212 -1.533 l -1.438 -3.447 l -0.581 -2.166 l -0.147 -1.005 l 0.199 -0.909 l 0.201 0.138 l 0.212 -0.063 l 0.492 -0.191 l 3.076 -2.072 l 6.662 -3.869 l 5.318 -1.078 l 8.02 -5.436 l 2.592 -2.071 l 0.143 -0.117 l 1.507 -2.251 l 0.147 -0.328 l 0.233 -0.814 l -0.043 -0.096 l -0.434 -0.2 l 0.909 -1.936 l 0.692 -1.162 l 2.369 -0.623 l 0.191 -0.021 l 0.84 0.274 l 1.539 0.655 l 0.417 0.19 l 0.739 0.465 l 0.387 0.255 l 1.21 1.797 l 0.582 0.306 l 2.433 -0.306 l 4.567 -1.163 l 0.926 -1.766 l 2.082 -5.53 l 0.275 0.043 l 1.156 -0.159 L 312.004 351.725 Z"/>

    <!-- Saxony -->
    <path id="DE-SN" class="state"
        d="M550 480
         L620 470 L700 510 L710 570
         L660 610 L580 600 Z"/>

    <!-- Rhineland-Palatinate -->
    <path id="DE-RP" class="state"
        d="M240 460
         L300 460 L330 500 L320 570
         L280 610 L240 580 Z"/>

    <!-- Saarland -->
    <path id="DE-SL" class="state"
        d="M240 600 L270 600 L280 630 L250 640 Z"/>

    <!-- Baden-Württemberg -->
    <path id="DE-BW" class="state"
        d="M330 520
         L420 520 L470 580 L460 670
         L400 720 L340 680 Z"/>

    <!-- Bavaria -->
    <path id="DE-BY" class="state"
        d="M470 520
         L620 520 L760 600 L820 720
         L800 850 L700 930 L560 900
         L480 820 Z"/>

</svg>
